<?xml version="1.0" encoding="utf-8"?>
<!-- Generator: Adobe Illustrator 16.0.0, SVG Export Plug-In . SVG Version: 6.00 Build 0)  -->
<!DOCTYPE svg PUBLIC "-//W3C//DTD SVG 1.1//EN" "http://www.w3.org/Graphics/SVG/1.1/DTD/svg11.dtd">
<svg version="1.1" id="圖層_1" xmlns="http://www.w3.org/2000/svg" xmlns:xlink="http://www.w3.org/1999/xlink" x="0px" y="0px"
	 width="86.039px" height="81.564px" viewBox="0 0 86.039 81.564" enable-background="new 0 0 86.039 81.564" xml:space="preserve">
<path fill="#CCCCCC" d="M50.09,40.781l12.021,12.022c1.172,1.17,1.172,3.069,0,4.242l-2.828,2.827c-1.172,1.173-3.072,1.173-4.242,0
	L43.02,47.852L30.999,59.874c-1.172,1.173-3.071,1.173-4.243,0l-2.828-2.827c-1.172-1.173-1.172-3.072,0-4.242l12.021-12.023
	L23.928,28.761c-1.172-1.172-1.172-3.071,0-4.243l2.828-2.828c1.172-1.172,3.071-1.172,4.243,0L43.02,33.711L55.041,21.69
	c1.17-1.172,3.07-1.172,4.242,0l2.828,2.828c1.172,1.172,1.172,3.071,0,4.243L50.09,40.781z"/>
</svg>
