<?xml version="1.0" encoding="utf-8"?>
<!-- Generator: Adobe Illustrator 16.0.0, SVG Export Plug-In . SVG Version: 6.00 Build 0)  -->
<!DOCTYPE svg PUBLIC "-//W3C//DTD SVG 1.1//EN" "http://www.w3.org/Graphics/SVG/1.1/DTD/svg11.dtd">
<svg version="1.1" id="圖層_1" xmlns="http://www.w3.org/2000/svg" xmlns:xlink="http://www.w3.org/1999/xlink" x="0px" y="0px"
	 width="145.174px" height="254.111px" viewBox="0 0 145.174 254.111" enable-background="new 0 0 145.174 254.111"
	 xml:space="preserve">
<path fill="#FFE9A2" d="M44.039,126.848l87.161,86.587c0,0,6.781,6.312,9.453,10.007c6.182,8.604,6.096,17.563-1.654,24.972
	c-7.754,7.408-17.203,7.702-24.768,0.233c-36.361-35.896-72.479-72.044-108.27-108.51c-8.426-8.586-7.67-19.043,0.686-27.504
	c35.166-35.626,70.493-71.1,106.143-106.236c8.391-8.26,18.932-8.851,27.178,0.159c8.309,9.087,6.041,18.835-2.313,27.243
	C111.738,59.885,44.039,126.848,44.039,126.848z"/>
</svg>
